<svg width="25" height="25" viewBox="0 0 25 25" fill="none" xmlns="http://www.w3.org/2000/svg">
<path d="M7.51329 21.5264C8.11289 21.9131 8.78969 22.1153 9.45469 22.1153C9.72909 22.1153 10.0006 22.0801 10.2643 22.0108L10.3639 21.9844C11.0797 21.7949 11.7272 21.4248 12.235 20.916C12.9459 20.207 13.0065 19.0498 12.3805 18.165C11.7672 17.2964 11.0852 16.4875 10.3698 15.7108L15.3776 10.703C16.1543 11.4184 16.9631 12.1004 17.8317 12.7137C18.2399 13.0028 18.7067 13.1453 19.1608 13.1453C19.6891 13.1453 20.2008 12.9519 20.5807 12.5701C21.0914 12.0603 21.4616 11.4129 21.651 10.6971L21.6774 10.5975C21.9167 9.69607 21.7399 8.69317 21.193 7.84647C20.07 6.10917 18.5573 4.59647 16.82 3.47347C15.9723 2.92657 14.9714 2.75077 14.069 2.98907L13.9694 3.01547C13.2536 3.20497 12.6061 3.57507 12.0983 4.08387C11.3874 4.79287 11.3268 5.95007 11.9528 6.83487C12.5661 7.70347 13.2481 8.51227 13.9635 9.28897L8.95569 14.2968C8.17899 13.5814 7.37009 12.8995 6.50149 12.2861C5.61769 11.6601 4.45849 11.7187 3.75249 12.4297C3.24179 12.9395 2.87159 13.5869 2.68219 14.3027L2.65579 14.4023C2.41649 15.3037 2.59329 16.3066 3.14019 17.1533C4.26329 18.8906 5.77599 20.4033 7.51329 21.5264ZM13.5123 5.49797C13.7721 5.23817 14.107 5.04777 14.4811 4.94917L14.5807 4.92277C14.9401 4.82897 15.359 4.91107 15.734 5.15327C17.236 6.12397 18.5426 7.43057 19.5133 8.93257C19.7545 9.30657 19.8395 9.72647 19.7438 10.0859L19.7174 10.1855C19.6188 10.5595 19.4283 10.8945 19.1842 11.1435C19.1686 11.1523 19.0875 11.1533 18.986 11.081C17.9372 10.34 16.9589 9.51547 16.0574 8.61427L16.0554 8.61127L16.0524 8.60927C15.1512 7.70767 14.3267 6.72947 13.5857 5.68067C13.5133 5.57807 13.5172 5.49797 13.5123 5.49797ZM4.58949 14.9141L4.61589 14.8145C4.71449 14.4405 4.90499 14.1055 5.14909 13.8565C5.16569 13.8477 5.24579 13.8467 5.34729 13.919C6.39609 14.66 7.37439 15.4845 8.27589 16.3857L8.27789 16.3887L8.28089 16.3907C9.18209 17.2923 10.0066 18.2705 10.7476 19.3193C10.8199 19.4218 10.816 19.5019 10.8208 19.5019C10.561 19.7617 10.2261 19.9521 9.85199 20.0507L9.75239 20.0771C9.39499 20.1718 8.97409 20.0878 8.59909 19.8466C7.09709 18.8759 5.79049 17.5693 4.81979 16.0673C4.57869 15.6934 4.49369 15.2734 4.58949 14.9141ZM20.652 2.60057C20.2614 2.20997 19.6286 2.20997 19.2379 2.60057C18.8472 2.99117 18.8473 3.62397 19.2379 4.01467L20.652 5.42877C20.8473 5.62407 21.1032 5.72177 21.359 5.72177C21.6148 5.72177 21.8707 5.62407 22.066 5.42877C22.4566 5.03817 22.4566 4.40537 22.066 4.01467L20.652 2.60057ZM3.68119 22.3994C3.87649 22.5947 4.13239 22.6924 4.38819 22.6924C4.64399 22.6924 4.89989 22.5947 5.09519 22.3994C5.48579 22.0088 5.48579 21.376 5.09519 20.9853L3.68109 19.5712C3.29049 19.1806 2.65769 19.1806 2.26699 19.5712C1.87629 19.9618 1.87639 20.5946 2.26699 20.9853L3.68119 22.3994Z" fill="white"/>
</svg>
