<svg width="41" height="40" viewBox="0 0 41 40" fill="none" xmlns="http://www.w3.org/2000/svg">
<path d="M18.5312 5.28223C18.9267 3.08864 22.0733 3.08866 22.4688 5.28223L24.416 16.084L35.2178 18.0312C37.4114 18.4267 37.4113 21.5733 35.2178 21.9688L24.416 23.916L22.4688 34.7178C22.0733 36.9114 18.9267 36.9113 18.5312 34.7178L16.584 23.916L5.78223 21.9688C3.58864 21.5733 3.58866 18.4267 5.78223 18.0312L16.584 16.084L18.5312 5.28223Z" stroke="#F52955" stroke-width="2"/>
<circle cx="8" cy="34.5" r="3.5" stroke="#F52955" stroke-width="2"/>
<path d="M31.8457 4.75C32.3472 4.75 32.7539 5.15673 32.7539 5.6582V6.75781C32.7539 7.17199 33.0897 7.50776 33.5039 7.50781H34.5547C35.0523 7.50781 35.4561 7.91157 35.4561 8.40918C35.456 8.90671 35.0522 9.30957 34.5547 9.30957H33.5039C33.0899 9.30962 32.7541 9.64558 32.7539 10.0596V11.1318C32.7539 11.6333 32.3472 12.04 31.8457 12.04C31.3444 12.0399 30.9385 11.6332 30.9385 11.1318V10.0596C30.9382 9.64571 30.6023 9.30983 30.1885 9.30957H29.1514C28.6538 9.30957 28.2501 8.90671 28.25 8.40918C28.25 7.91157 28.6538 7.50781 29.1514 7.50781H30.1885C30.6025 7.50756 30.9385 7.17187 30.9385 6.75781V5.6582C30.9385 5.15683 31.3444 4.75016 31.8457 4.75Z" fill="#F52955" stroke="#F52955" stroke-width="0.5"/>
</svg>
