<svg width="51" height="50" viewBox="0 0 51 50" fill="none" xmlns="http://www.w3.org/2000/svg">
<path d="M25.5 0.5C39.031 0.5 50 11.469 50 25C50 38.531 39.031 49.5 25.5 49.5C11.969 49.5 1 38.531 1 25C1 11.469 11.969 0.5 25.5 0.5Z" fill="#1D1D1D"/>
<path d="M25.5 0.5C39.031 0.5 50 11.469 50 25C50 38.531 39.031 49.5 25.5 49.5C11.969 49.5 1 38.531 1 25C1 11.469 11.969 0.5 25.5 0.5Z" stroke="#2C2C2C"/>
<g clip-path="url(#clip0_63_2380)">
<path d="M25.4999 23.1818V27.0545H30.8817C30.6454 28.2999 29.9362 29.3545 28.8726 30.0636L32.118 32.5818C34.0089 30.8364 35.0998 28.2728 35.0998 25.2273C35.0998 24.5182 35.0362 23.8364 34.918 23.1819L25.4999 23.1818Z" fill="white"/>
<path d="M19.8956 26.9033L19.1636 27.4636L16.5726 29.4818C18.2181 32.7454 21.5906 35 25.4996 35C28.1996 35 30.4632 34.1091 32.1177 32.5818L28.8723 30.0636C27.9814 30.6636 26.845 31.0273 25.4996 31.0273C22.8996 31.0273 20.6906 29.2728 19.8996 26.9091L19.8956 26.9033Z" fill="white"/>
<path d="M16.5726 20.5182C15.8909 21.8636 15.5 23.3818 15.5 24.9999C15.5 26.6181 15.8909 28.1363 16.5726 29.4817C16.5726 29.4907 19.9 26.8999 19.9 26.8999C19.7 26.2999 19.5818 25.6636 19.5818 24.9998C19.5818 24.3361 19.7 23.6998 19.9 23.0998L16.5726 20.5182Z" fill="white"/>
<path d="M25.4998 18.9818C26.9726 18.9818 28.2816 19.4909 29.3271 20.4727L32.1907 17.6091C30.4543 15.991 28.1999 15 25.4998 15C21.5908 15 18.2181 17.2455 16.5726 20.5182L19.8999 23.1C20.6907 20.7363 22.8998 18.9818 25.4998 18.9818Z" fill="white"/>
</g>
<defs>
<clipPath id="clip0_63_2380">
<rect width="20" height="20" fill="white" transform="translate(15.5 15)"/>
</clipPath>
</defs>
</svg>
