<svg width="25" height="25" viewBox="0 0 25 25" fill="none" xmlns="http://www.w3.org/2000/svg">
<path d="M20.54 7.32018L14.78 3.29018C13.21 2.19018 10.8 2.25018 9.28999 3.42018L4.27999 7.33018C3.27999 8.11018 2.48999 9.71018 2.48999 10.9702V17.8702C2.48999 20.4202 4.55999 22.5002 7.10999 22.5002H17.89C20.44 22.5002 22.51 20.4302 22.51 17.8802V11.1002C22.51 9.75018 21.64 8.09018 20.54 7.32018ZM13.25 18.5002C13.25 18.9102 12.91 19.2502 12.5 19.2502C12.09 19.2502 11.75 18.9102 11.75 18.5002V15.5002C11.75 15.0902 12.09 14.7502 12.5 14.7502C12.91 14.7502 13.25 15.0902 13.25 15.5002V18.5002Z" fill="white"/>
</svg>
