<svg width="20" height="20" viewBox="0 0 20 20" fill="none" xmlns="http://www.w3.org/2000/svg">
<path d="M19 8.50001H1C0.801088 8.50001 0.610322 8.57903 0.46967 8.71968C0.329018 8.86033 0.25 9.0511 0.25 9.25001C0.253295 11.0336 0.744149 12.7824 1.66948 14.3072C2.59481 15.832 3.9194 17.0748 5.5 17.9013V18.25C5.5 18.6478 5.65804 19.0294 5.93934 19.3107C6.22064 19.592 6.60218 19.75 7 19.75H13C13.3978 19.75 13.7794 19.592 14.0607 19.3107C14.342 19.0294 14.5 18.6478 14.5 18.25V17.9013C16.0806 17.0748 17.4052 15.832 18.3305 14.3072C19.2558 12.7824 19.7467 11.0336 19.75 9.25001C19.75 9.0511 19.671 8.86033 19.5303 8.71968C19.3897 8.57903 19.1989 8.50001 19 8.50001ZM13.4369 16.75C13.3065 16.8099 13.196 16.906 13.1186 17.0268C13.0411 17.1476 13 17.2881 13 17.4316V18.25H7V17.4334C7.00037 17.2896 6.95938 17.1487 6.88193 17.0276C6.80447 16.9064 6.69381 16.8101 6.56312 16.75C5.24417 16.1431 4.10807 15.1999 3.26885 14.0151C2.42963 12.8303 1.91681 11.4456 1.78188 10H18.2153C18.0806 11.4453 17.5682 12.8298 16.7295 14.0146C15.8908 15.1993 14.7553 16.1427 13.4369 16.75ZM5.66594 3.15626C6.1675 2.53189 6.29125 2.11001 6.23969 1.92439C6.20031 1.7847 6.01375 1.71251 6.01188 1.71251C5.84211 1.65672 5.69784 1.54214 5.60505 1.38942C5.51226 1.23669 5.47706 1.05585 5.50578 0.879472C5.5345 0.703092 5.62525 0.542763 5.76169 0.42736C5.89814 0.311957 6.0713 0.249065 6.25 0.250011C6.32564 0.250099 6.40084 0.261474 6.47312 0.283761C6.56687 0.312823 7.40219 0.595948 7.67219 1.48001C7.90281 2.23657 7.62063 3.11595 6.83406 4.0947C6.3325 4.71907 6.20875 5.14095 6.26031 5.32657C6.29969 5.46626 6.4825 5.53657 6.48438 5.53751C6.65383 5.59321 6.79789 5.70748 6.89069 5.85981C6.98349 6.01214 7.01896 6.19256 6.99074 6.36869C6.96251 6.54482 6.87244 6.70512 6.73668 6.82082C6.60092 6.93652 6.42837 7.00006 6.25 7.00001C6.17436 6.99992 6.09916 6.98855 6.02688 6.96626C5.93313 6.9372 5.09781 6.65407 4.82781 5.77001C4.59719 5.01345 4.87937 4.13407 5.66594 3.15626ZM9.41594 3.15626C9.9175 2.53189 10.0413 2.11001 9.98969 1.92439C9.95031 1.7847 9.76375 1.71251 9.76188 1.71251C9.5921 1.65672 9.44784 1.54214 9.35505 1.38942C9.26226 1.23669 9.22706 1.05585 9.25578 0.879472C9.2845 0.703092 9.37525 0.542763 9.51169 0.42736C9.64814 0.311957 9.8213 0.249065 10 0.250011C10.0756 0.250099 10.1508 0.261474 10.2231 0.283761C10.3169 0.312823 11.1522 0.595948 11.4222 1.48001C11.6528 2.23657 11.3706 3.11595 10.5841 4.0947C10.0825 4.71907 9.95875 5.14095 10.0103 5.32657C10.0497 5.46626 10.2325 5.53657 10.2344 5.53751C10.4038 5.59321 10.5479 5.70748 10.6407 5.85981C10.7335 6.01214 10.769 6.19256 10.7407 6.36869C10.7125 6.54482 10.6224 6.70512 10.4867 6.82082C10.3509 6.93652 10.1784 7.00006 10 7.00001C9.92436 6.99992 9.84916 6.98855 9.77688 6.96626C9.68313 6.9372 8.84781 6.65407 8.57781 5.77001C8.34719 5.01345 8.62937 4.13407 9.41594 3.15626ZM13.1659 3.15626C13.6675 2.53189 13.7913 2.11001 13.7397 1.92439C13.7003 1.7847 13.5138 1.71251 13.5119 1.71251C13.3421 1.65672 13.1978 1.54214 13.105 1.38942C13.0123 1.23669 12.9771 1.05585 13.0058 0.879472C13.0345 0.703092 13.1252 0.542763 13.2617 0.42736C13.3981 0.311957 13.5713 0.249065 13.75 0.250011C13.8256 0.250099 13.9008 0.261474 13.9731 0.283761C14.0669 0.312823 14.9022 0.595948 15.1722 1.48001C15.4028 2.23657 15.1206 3.11595 14.3341 4.0947C13.8325 4.71907 13.7087 5.14095 13.7603 5.32657C13.7997 5.46626 13.9825 5.53657 13.9844 5.53751C14.1538 5.59321 14.2979 5.70748 14.3907 5.85981C14.4835 6.01214 14.519 6.19256 14.4907 6.36869C14.4625 6.54482 14.3724 6.70512 14.2367 6.82082C14.1009 6.93652 13.9284 7.00006 13.75 7.00001C13.6744 6.99992 13.5992 6.98855 13.5269 6.96626C13.4331 6.9372 12.5978 6.65407 12.3278 5.77001C12.0972 5.01345 12.3794 4.13407 13.1659 3.15626Z" fill="white"/>
</svg>
