<svg width="44" height="44" viewBox="0 0 44 44" fill="none" xmlns="http://www.w3.org/2000/svg">
<rect width="44" height="44" rx="22" fill="#1B1B1B"/>
<path d="M27 12H17C14.24 12 12 14.23 12 16.98V22.96V23.96C12 26.71 14.24 28.94 17 28.94H18.5C18.77 28.94 19.13 29.12 19.3 29.34L20.8 31.33C21.46 32.21 22.54 32.21 23.2 31.33L24.7 29.34C24.89 29.09 25.19 28.94 25.5 28.94H27C29.76 28.94 32 26.71 32 23.96V16.98C32 14.23 29.76 12 27 12ZM18 22C17.44 22 17 21.55 17 21C17 20.45 17.45 20 18 20C18.55 20 19 20.45 19 21C19 21.55 18.56 22 18 22ZM22 22C21.44 22 21 21.55 21 21C21 20.45 21.45 20 22 20C22.55 20 23 20.45 23 21C23 21.55 22.56 22 22 22ZM26 22C25.44 22 25 21.55 25 21C25 20.45 25.45 20 26 20C26.55 20 27 20.45 27 21C27 21.55 26.56 22 26 22Z" fill="#ACACAC"/>
</svg>
