<?xml version="1.0" encoding="UTF-8"?><svg id="Layer_2" xmlns="http://www.w3.org/2000/svg" viewBox="0 0 199.64 242.3"><defs><style>.cls-1{fill:#fff;}</style></defs><g id="Layer_1-2"><path class="cls-1" d="M189.93,0h-31.08c-5.63,0-9.71,4.08-9.71,9.71v127.58L25.44,4.56C22.71,1.83,18.38,0,14.67,0h-4.96C4.08,0,0,4.08,0,9.71v33.73c0,3.7,1.62,7.94,4.23,11.07l.09.11,169.65,182.55c2.67,3.12,7.1,5.13,11.32,5.13h4.63c5.63,0,9.71-4.08,9.71-9.71V9.71c0-5.63-4.08-9.71-9.71-9.71Z"/><path class="cls-1" d="M12.44,96.73c-2.19-2.56-4.42-3.1-5.92-3.1-3.14,0-6.52,2.4-6.52,7.68v131.28c0,5.63,4.08,9.71,9.71,9.71h31.08c5.63,0,9.71-4.08,9.71-9.71v-88.62c0-3.93-1.76-8.25-4.48-11.02L12.44,96.73Z"/></g></svg>