<svg width="24" height="25" viewBox="0 0 24 25" fill="none" xmlns="http://www.w3.org/2000/svg">
<path d="M5.40009 10.0002C6.05009 10.0002 6.66675 10.1168 7.25009 10.3502C7.83342 10.5835 8.36676 10.9252 8.85009 11.3752L18.4001 20.5002H19.0001C19.2834 20.5002 19.5211 20.4042 19.7131 20.2122C19.9051 20.0202 20.0008 19.7828 20.0001 19.5002C20.0001 19.3668 19.9874 19.2252 19.9621 19.0752C19.9368 18.9252 19.8494 18.7752 19.7001 18.6252L15.1251 14.0502L13.3501 8.70016L11.5001 9.15016C10.8668 9.31682 10.2918 9.20016 9.77509 8.80016C9.25842 8.40016 9.00009 7.87516 9.00009 7.22516V5.12516L8.30009 4.77516L4.45009 9.92516C4.43342 9.94182 4.42509 9.95416 4.42509 9.96216C4.42509 9.97016 4.41675 9.98282 4.40009 10.0002H5.40009ZM5.40009 12.0002H4.25009C4.30009 12.1168 4.36275 12.2252 4.43809 12.3252C4.51342 12.4252 4.60075 12.5168 4.70009 12.6002L12.8001 19.9752C12.9834 20.1585 13.1918 20.2918 13.4251 20.3752C13.6584 20.4585 13.9001 20.5002 14.1501 20.5002H15.5001L7.47509 12.8252C7.19175 12.5418 6.87109 12.3335 6.51309 12.2002C6.15509 12.0668 5.78409 12.0002 5.40009 12.0002ZM14.1501 22.5002C13.6501 22.5002 13.1751 22.4085 12.7251 22.2252C12.2751 22.0418 11.8584 21.7835 11.4751 21.4502L3.35009 14.0752C2.58342 13.3752 2.15409 12.5168 2.06209 11.5002C1.97009 10.4835 2.23275 9.55849 2.85009 8.72516L6.70009 3.57516C6.98342 3.19182 7.36275 2.93749 7.83809 2.81216C8.31342 2.68682 8.76742 2.74116 9.20009 2.97516L9.90009 3.32516C10.2501 3.50849 10.5211 3.75849 10.7131 4.07516C10.9051 4.39182 11.0008 4.74182 11.0001 5.12516V7.22516L12.8501 6.75016C13.3501 6.61682 13.8334 6.67949 14.3001 6.93816C14.7668 7.19682 15.0834 7.56749 15.2501 8.05016L16.8751 12.9502L21.1251 17.2002C21.4584 17.5335 21.6878 17.8918 21.8131 18.2752C21.9384 18.6585 22.0008 19.0668 22.0001 19.5002C22.0001 20.3335 21.7084 21.0418 21.1251 21.6252C20.5418 22.2085 19.8334 22.5002 19.0001 22.5002H14.1501Z" fill="white"/>
</svg>
