<svg width="15" height="15" viewBox="0 0 15 15" fill="none" xmlns="http://www.w3.org/2000/svg">
<path d="M11.8562 13.75H3.1062C1.2312 13.75 1.2312 12.9062 1.2312 11.875V11.25C1.2312 10.9062 1.51245 10.625 1.8562 10.625H13.1062C13.45 10.625 13.7312 10.9062 13.7312 11.25V11.875C13.7312 12.9062 13.7312 13.75 11.8562 13.75Z" stroke="white" stroke-width="1.2" stroke-linecap="round" stroke-linejoin="round"/>
<path d="M12.95 8.125V10.625H2.0437V8.125C2.0437 5.725 3.73745 3.71875 5.9937 3.2375C6.3312 3.1625 6.6812 3.125 7.0437 3.125H7.94995C8.31245 3.125 8.6687 3.1625 9.0062 3.2375C11.2625 3.725 12.95 5.725 12.95 8.125Z" stroke="white" stroke-width="1.2" stroke-linecap="round" stroke-linejoin="round"/>
<path d="M9.0625 2.8125C9.0625 2.9625 9.04375 3.1 9.00625 3.2375C8.66875 3.1625 8.3125 3.125 7.95 3.125H7.04375C6.68125 3.125 6.33125 3.1625 5.99375 3.2375C5.95625 3.1 5.9375 2.9625 5.9375 2.8125C5.9375 1.95 6.6375 1.25 7.5 1.25C8.3625 1.25 9.0625 1.95 9.0625 2.8125Z" stroke="white" stroke-width="1.2" stroke-linecap="round" stroke-linejoin="round"/>
<path d="M9.375 6.875H5.625" stroke="white" stroke-width="1.2" stroke-linecap="round" stroke-linejoin="round"/>
</svg>
