<?xml version="1.0" encoding="UTF-8"?><svg id="Layer_2" xmlns="http://www.w3.org/2000/svg" viewBox="0 0 187.84 242.3"><defs><style>.cls-1{fill:#fff;}</style></defs><g id="Layer_1-2"><path class="cls-1" d="M24.37,47.86h48.7c1.64,0,3.15-.88,3.96-2.31L98.99,6.8c1.72-3.03-.47-6.8-3.96-6.8H24.37c-5.44,0-9.71,4.26-9.71,9.71v28.44c0,5.45,4.27,9.71,9.71,9.71Z"/><path class="cls-1" d="M178.13,194.44h-97.9S183.5,11.74,183.5,11.74c2.16-3.79,1.15-6.64.35-8.02-.8-1.38-2.83-3.72-7.37-3.72h-36.05c-5.3,0-10.18,2.85-12.8,7.46l-22.9,40.41c-.04.08-.08.16-.14.26L1.14,230.59l-.14.24c-1.37,2.73-1.34,5.61.07,7.89,1.41,2.27,3.99,3.58,7.09,3.58h169.97c5.36,0,9.71-4.35,9.71-9.71v-28.44c0-5.36-4.35-9.71-9.71-9.71Z"/></g></svg>