<svg width="51" height="50" viewBox="0 0 51 50" fill="none" xmlns="http://www.w3.org/2000/svg">
<path d="M25.5 0.5C39.031 0.5 50 11.469 50 25C50 38.531 39.031 49.5 25.5 49.5C11.969 49.5 1 38.531 1 25C1 11.469 11.969 0.5 25.5 0.5Z" fill="#1D1D1D"/>
<path d="M25.5 0.5C39.031 0.5 50 11.469 50 25C50 38.531 39.031 49.5 25.5 49.5C11.969 49.5 1 38.531 1 25C1 11.469 11.969 0.5 25.5 0.5Z" stroke="#2C2C2C"/>
<g clip-path="url(#clip0_63_2387)">
<path d="M33.66 30.5863C33.3575 31.2851 32.9995 31.9283 32.5847 32.5196C32.0193 33.3257 31.5563 33.8838 31.1996 34.1936C30.6465 34.7022 30.0539 34.9627 29.4194 34.9775C28.9638 34.9775 28.4145 34.8479 27.775 34.585C27.1334 34.3232 26.5438 34.1936 26.0047 34.1936C25.4393 34.1936 24.8329 34.3232 24.1842 34.585C23.5346 34.8479 23.0113 34.985 22.6112 34.9985C22.0027 35.0245 21.3962 34.7566 20.7908 34.1936C20.4044 33.8566 19.921 33.2788 19.342 32.4603C18.7208 31.5863 18.2101 30.5727 17.81 29.4172C17.3815 28.1691 17.1667 26.9605 17.1667 25.7904C17.1667 24.4501 17.4563 23.2941 18.0364 22.3253C18.4923 21.5472 19.0988 20.9334 19.858 20.4828C20.6171 20.0322 21.4373 19.8026 22.3206 19.7879C22.8039 19.7879 23.4377 19.9374 24.2254 20.2312C25.0108 20.526 25.5151 20.6755 25.7362 20.6755C25.9015 20.6755 26.4617 20.5007 27.4114 20.1522C28.3095 19.829 29.0675 19.6952 29.6885 19.7479C31.3712 19.8837 32.6353 20.547 33.476 21.742C31.9712 22.6538 31.2267 23.931 31.2415 25.5693C31.2551 26.8454 31.7181 27.9074 32.6279 28.7506C33.0403 29.1419 33.5007 29.4444 34.0131 29.6592C33.902 29.9814 33.7847 30.29 33.66 30.5863ZM29.8009 15.4004C29.8009 16.4006 29.4354 17.3345 28.7071 18.1989C27.8281 19.2265 26.7649 19.8203 25.612 19.7266C25.5973 19.6067 25.5888 19.4804 25.5888 19.3476C25.5888 18.3874 26.0068 17.3598 26.7491 16.5196C27.1197 16.0942 27.591 15.7404 28.1626 15.4583C28.733 15.1803 29.2725 15.0266 29.7799 15.0002C29.7947 15.134 29.8009 15.2677 29.8009 15.4003V15.4004Z" fill="white"/>
</g>
<defs>
<clipPath id="clip0_63_2387">
<rect width="20" height="20" fill="white" transform="translate(15.5 15)"/>
</clipPath>
</defs>
</svg>
