<svg width="18" height="18" viewBox="0 0 18 18" fill="none" xmlns="http://www.w3.org/2000/svg">
<path d="M9 2.25C9.5 4.25 10.5 5.875 12 7.125C13.5 8.375 14.25 9.75 14.25 11.25C14.25 12.6424 13.6969 13.9777 12.7123 14.9623C11.7277 15.9469 10.3924 16.5 9 16.5C7.60761 16.5 6.27226 15.9469 5.28769 14.9623C4.30312 13.9777 3.75 12.6424 3.75 11.25C3.75 10.4386 4.01317 9.64911 4.5 9C4.5 9.49728 4.69754 9.97419 5.04917 10.3258C5.40081 10.6775 5.87772 10.875 6.375 10.875C6.87228 10.875 7.34919 10.6775 7.70083 10.3258C8.05246 9.97419 8.25 9.49728 8.25 9C8.25 7.5 7.125 6.75 7.125 5.25C7.125 4.25 7.75 3.25 9 2.25Z" stroke="#FF8538" stroke-width="1.5" stroke-linecap="round" stroke-linejoin="round"/>
</svg>
