<svg width="51" height="50" viewBox="0 0 51 50" fill="none" xmlns="http://www.w3.org/2000/svg">
<path d="M25.5 0.5C39.031 0.5 50 11.469 50 25C50 38.531 39.031 49.5 25.5 49.5C11.969 49.5 1 38.531 1 25C1 11.469 11.969 0.5 25.5 0.5Z" fill="#1D1D1D"/>
<path d="M25.5 0.5C39.031 0.5 50 11.469 50 25C50 38.531 39.031 49.5 25.5 49.5C11.969 49.5 1 38.531 1 25C1 11.469 11.969 0.5 25.5 0.5Z" stroke="#2C2C2C"/>
<g clip-path="url(#clip0_63_2390)">
<path d="M25.5 15C19.9772 15 15.5 19.4772 15.5 25C15.5 29.6896 18.7288 33.6248 23.0844 34.7056V28.056H21.0224V25H23.0844V23.6832C23.0844 20.2796 24.6248 18.702 27.9664 18.702C28.6 18.702 29.6932 18.8264 30.1404 18.9504V21.7204C29.9044 21.6956 29.4944 21.6832 28.9852 21.6832C27.3456 21.6832 26.712 22.3044 26.712 23.9192V25H29.9784L29.4172 28.056H26.712V34.9268C31.6636 34.3288 35.5004 30.1128 35.5004 25C35.5 19.4772 31.0228 15 25.5 15Z" fill="white"/>
</g>
<defs>
<clipPath id="clip0_63_2390">
<rect width="20" height="20" fill="white" transform="translate(15.5 15)"/>
</clipPath>
</defs>
</svg>
