<svg width="25" height="24" viewBox="0 0 25 24" fill="none" xmlns="http://www.w3.org/2000/svg">
<path d="M16.92 7.95012C19.36 10.3901 19.36 14.3501 16.92 16.7901C14.48 19.2301 10.52 19.2301 8.08 16.7901C5.64 14.3501 5.64 10.3901 8.08 7.95012C10.52 5.51012 14.48 5.51012 16.92 7.95012Z" stroke="white" stroke-width="1.5" stroke-linecap="round" stroke-linejoin="round"/>
<path d="M8.74999 21.6399C6.74999 20.8399 4.99999 19.3899 3.83999 17.3799C2.69999 15.4099 2.31999 13.2199 2.58999 11.1299" stroke="white" stroke-width="1.5" stroke-linecap="round" stroke-linejoin="round"/>
<path d="M6.35001 4.47986C8.05001 3.14986 10.18 2.35986 12.5 2.35986C14.77 2.35986 16.86 3.12985 18.54 4.40985" stroke="white" stroke-width="1.5" stroke-linecap="round" stroke-linejoin="round"/>
<path d="M16.25 21.6399C18.25 20.8399 20 19.3899 21.16 17.3799C22.3 15.4099 22.68 13.2199 22.41 11.1299" stroke="white" stroke-width="1.5" stroke-linecap="round" stroke-linejoin="round"/>
</svg>
