<svg width="25" height="25" viewBox="0 0 25 25" fill="none" xmlns="http://www.w3.org/2000/svg">
<path fill-rule="evenodd" clip-rule="evenodd" d="M9.43333 2.5C9.23333 3.6 9.73333 4.7 10.3333 5.5C10.9333 6.3 12.0333 7 13.1333 6.9C13.3333 5.8 12.8333 4.8 12.2333 4C11.5333 3.2 10.4333 2.6 9.43333 2.5ZM6.23333 19.9C5.73333 19.1 5.43333 18.6 5.03333 17.7C3.83337 14.5 3.83337 12.7666 5.53333 10.5C6.43333 9.3 7.73333 8.7 9.03333 8.7C9.93333 8.7 10.5333 8.9 11.1333 9.1C11.6333 9.3 12.0333 9.4 12.5333 9.4C13.1333 9.4 13.5333 9.2 14.1333 9C14.7333 8.8 15.3333 8.6 16.0333 8.6C17.4333 8.6 18.9333 9.4 19.8333 10.9C21.1333 12.9 20.9333 16.8 18.8333 20C17.9333 21.2 16.9333 22.5 15.6333 22.5C15.0333 22.5 14.7333 22.3 14.3333 22.2C13.8333 22 13.3333 21.8 12.5333 21.8C11.6333 21.8 11.2333 22 10.7333 22.2C10.3333 22.4 10.0333 22.5 9.43333 22.5C8.03333 22.5 7.03333 21 6.23333 19.9Z" stroke="white" stroke-width="1.5" stroke-miterlimit="10" stroke-linecap="round" stroke-linejoin="round"/>
</svg>
