<svg width="24" height="22" viewBox="0 0 24 22" fill="none" xmlns="http://www.w3.org/2000/svg">
<g clip-path="url(#clip0_956_2321)">
<path d="M24 10.2878C23.7574 10.8941 23.3783 11.2974 22.7051 11.3682C20.8254 11.2785 18.8068 11.507 16.9429 11.3759C16.4349 11.3405 16.033 11.1769 15.7488 10.7371C15.7019 10.665 15.5156 10.3161 15.5156 10.2636V9.15359L13.3131 11.3499L16.5474 14.6078C17.0414 15.1705 17.0636 15.9197 16.6125 16.5178L11.4797 21.6898C10.0388 22.7065 8.41521 20.9713 9.56072 19.5673L13.4982 15.6009L10.2187 12.2934C9.74646 11.6841 9.76345 10.978 10.2404 10.3811L16.0617 4.53301C16.773 3.99042 17.8166 4.24194 18.2056 5.04903C18.2267 5.09331 18.3275 5.33538 18.3275 5.35132V8.49232H22.7572C22.8123 8.49232 23.114 8.59329 23.1879 8.62517C23.6185 8.81115 23.8148 9.17071 23.9994 9.57869V10.2872L24 10.2878Z" fill="white"/>
<path d="M0 5.94247V5.42291C0.138281 5.16903 0.341602 4.99545 0.636914 4.95471C1.74082 4.80297 3.15234 5.05921 4.28906 4.95058C5.23535 5.05803 5.20781 6.32093 4.28906 6.4148C3.15234 6.30558 1.74023 6.56182 0.636914 6.41067C0.341602 6.36993 0.138281 6.19635 0 5.94247Z" fill="white"/>
<path d="M8.62431 12.083C8.82939 13.0566 9.65615 13.6216 10.2919 14.303V14.3968L3.06904 21.6701C1.70674 22.7229 0.00283045 21.0437 1.05869 19.6444L8.50713 12.1297L8.62431 12.083Z" fill="white"/>
<path d="M12.0347 1.08865C12.4401 1.0243 12.8116 1.0857 13.1573 1.30415L15.7489 3.13207C14.8706 3.58669 14.3023 4.43866 13.5704 5.08103L12.5151 4.35718L9.446 7.45508C8.0714 8.5875 6.3587 6.92726 7.3671 5.502C8.73292 4.29401 10.0009 2.56882 11.3896 1.43109C11.5601 1.29116 11.8161 1.12349 12.0341 1.08865H12.0347Z" fill="white"/>
<path d="M18.8813 0.00536179C21.5192 -0.162906 21.9885 3.68128 19.5118 4.23036C16.5264 4.89163 15.9135 0.194294 18.8813 0.00536179Z" fill="white"/>
<path d="M2.00327 2.12788C3.09487 1.94368 4.63882 2.23298 5.77788 2.12788C6.60757 2.26781 6.60054 3.45809 5.73804 3.57676C4.60776 3.45927 3.08784 3.7527 2.00327 3.56967C1.18296 3.43152 1.1853 2.26604 2.00327 2.12788Z" fill="white"/>
<path d="M2.00327 7.79585C3.09487 7.61164 4.63882 7.90095 5.77788 7.79585C6.60757 7.93578 6.60054 9.12606 5.73804 9.24473C4.60776 9.12724 3.08784 9.42067 2.00327 9.23764C1.18296 9.09949 1.1853 7.93401 2.00327 7.79585Z" fill="white"/>
</g>
<defs>
<clipPath id="clip0_956_2321">
<rect width="24" height="22" fill="white"/>
</clipPath>
</defs>
</svg>
