<?xml version="1.0" encoding="UTF-8"?><svg id="Layer_2" xmlns="http://www.w3.org/2000/svg" viewBox="0 0 197.99 250.23"><defs><style>.cls-1{fill:#fff;}</style></defs><g id="Layer_1-2"><rect class="cls-1" width="50.5" height="118.29" rx="9.71" ry="9.71"/><path class="cls-1" d="M188.28,0h-31.08c-5.63,0-9.71,4.08-9.71,9.71v139.21c0,33.54-25.14,48.82-48.49,48.82-22.06,0-46.65-14.03-48.5-44.85v-.18s-.03-.17-.03-.17c-.7-5.57-4.4-9.04-9.67-9.04H9.71c-5.63,0-9.71,4.08-9.71,9.71v.18c.97,29.78,12.13,54.85,32.27,72.51,17.89,15.69,41.59,24.32,66.73,24.32s50.08-9.03,68.05-25.43c20.24-18.48,30.95-44.72,30.95-75.88V9.71c0-5.44-4.27-9.71-9.71-9.71Z"/></g></svg>