<svg width="58" height="58" viewBox="0 0 58 58" fill="none" xmlns="http://www.w3.org/2000/svg">
<rect width="58" height="58" rx="14" fill="#F52955"/>
<path d="M21 15L22.0182 19.9818L27 21L22.0182 22.0182L21 27L19.9818 22.0182L15 21L19.9818 19.9818L21 15Z" fill="#D9D9D9"/>
<path d="M28.5079 17.7296C28.6068 17.1813 29.3932 17.1813 29.4921 17.7296L31.0767 26.52C31.1137 26.7254 31.2746 26.8863 31.48 26.9233L40.2704 28.5079C40.8187 28.6068 40.8187 29.3932 40.2704 29.4921L31.48 31.0767C31.2746 31.1137 31.1137 31.2746 31.0767 31.48L29.4921 40.2704C29.3932 40.8187 28.6068 40.8187 28.5079 40.2704L26.9233 31.48C26.8863 31.2746 26.7254 31.1137 26.52 31.0767L17.7296 29.4921C17.1813 29.3932 17.1813 28.6068 17.7296 28.5079L26.52 26.9233C26.7254 26.8863 26.8863 26.7254 26.9233 26.52L28.5079 17.7296Z" fill="white"/>
</svg>
