<svg width="24" height="24" viewBox="0 0 24 24" fill="none" xmlns="http://www.w3.org/2000/svg">
<path d="M21.3 15.2998C21.5237 15.5228 21.7013 15.7877 21.8224 16.0794C21.9435 16.3712 22.0059 16.6839 22.0059 16.9998C22.0059 17.3157 21.9435 17.6284 21.8224 17.9202C21.7013 18.2119 21.5237 18.4768 21.3 18.6998L18.7 21.2998C18.477 21.5235 18.2121 21.7011 17.9203 21.8222C17.6286 21.9433 17.3159 22.0057 17 22.0057C16.6841 22.0057 16.3713 21.9433 16.0796 21.8222C15.7879 21.7011 15.523 21.5235 15.3 21.2998L2.69999 8.6998C2.25054 8.24818 1.99823 7.63695 1.99823 6.9998C1.99823 6.36265 2.25054 5.75143 2.69999 5.2998L5.29999 2.6998C5.75161 2.25036 6.36283 1.99805 6.99999 1.99805C7.63714 1.99805 8.24836 2.25036 8.69999 2.6998L21.3 15.2998Z" stroke="#FD7600" stroke-width="1.5" stroke-linecap="round" stroke-linejoin="round"/>
<path d="M14.5 12.5L16.5 10.5" stroke="#FD7600" stroke-width="1.5" stroke-linecap="round" stroke-linejoin="round"/>
<path d="M11.5 9.5L13.5 7.5" stroke="#FD7600" stroke-width="1.5" stroke-linecap="round" stroke-linejoin="round"/>
<path d="M8.5 6.5L10.5 4.5" stroke="#FD7600" stroke-width="1.5" stroke-linecap="round" stroke-linejoin="round"/>
<path d="M17.5 15.5L19.5 13.5" stroke="#FD7600" stroke-width="1.5" stroke-linecap="round" stroke-linejoin="round"/>
</svg>
