<svg width="34" height="44" viewBox="0 0 34 44" fill="none" xmlns="http://www.w3.org/2000/svg">
<path d="M17.8243 22.7266C17.567 22.4671 17.2406 22.3251 16.9047 22.3251C16.5688 22.3251 16.2397 22.4671 15.9811 22.7253L12.7144 25.9858C12.3677 26.3292 12.2946 26.6766 12.2946 26.9078C12.2946 27.1389 12.3677 27.4863 12.7117 27.827L15.9811 31.0903C16.2397 31.3485 16.5675 31.4904 16.9047 31.4904C17.2419 31.4904 17.567 31.3471 17.8229 31.0903L21.0923 27.827C21.3388 27.581 21.4756 27.2538 21.4756 26.9078C21.4756 26.5617 21.3402 26.2346 21.0923 25.9885L17.8257 22.728L17.8243 22.7266Z" fill="#F52955"/>
<path d="M29.2726 14.8672C28.1756 13.7209 26.893 12.7408 25.4601 11.954C22.9045 10.5536 19.9439 9.81277 16.9007 9.81277C14.2259 9.81277 11.5796 10.39 9.24604 11.4809C7.73325 12.1893 6.36537 13.1017 5.17897 14.1913C1.79043 17.3004 0 21.6965 0 26.9064C0 32.1163 1.82835 36.6056 5.28597 39.7202C8.35082 42.4792 12.4761 44 16.9007 44C21.3253 44 25.4168 42.4806 28.4762 39.7202C31.9298 36.6043 33.7554 32.173 33.7554 26.9064C33.7554 22.0872 32.2047 17.9236 29.2726 14.8672ZM16.9007 37.1261C12.0116 37.1261 6.75 33.9277 6.75 26.9064C6.75 19.8851 12.0116 16.6867 16.9007 16.6867C21.7899 16.6867 27.0515 19.8851 27.0515 26.9064C27.0515 33.9277 21.7899 37.1261 16.9007 37.1261Z" fill="white"/>
<path d="M5.40242 12.5272L6.17168 11.8202C7.24838 10.8307 8.49165 10.002 9.86901 9.35722L10.3281 9.14228L10.2875 8.63671C10.2306 7.9189 10.45 7.22947 10.9078 6.69551C11.3886 6.13586 12.0766 5.80737 12.8973 5.74519C13.4932 5.70058 14.1474 5.67895 14.8936 5.67895C15.7658 5.67895 16.6718 5.70869 17.5494 5.73708C18.4392 5.76682 19.3602 5.79656 20.2595 5.79656C20.8852 5.79656 21.4432 5.78169 21.9659 5.75195C22.8219 5.88037 23.5356 6.29402 23.9798 6.92261C24.4037 7.52146 24.5486 8.25685 24.3915 8.99223L24.2764 9.52485L24.7545 9.7871C26.056 10.5009 27.2194 11.3903 28.2135 12.4285L28.938 13.1855L29.4012 12.246C29.4716 12.1027 29.6436 11.7526 29.7087 11.5904C30.7677 8.98007 30.5822 6.22373 29.2021 4.02569C27.7747 1.75194 25.2773 0.3366 22.3519 0.143292C20.9813 0.0513687 19.2356 0 17.4384 0C15.4719 0 13.6097 0.0608314 12.1944 0.17168C9.31644 0.398784 6.87052 1.829 5.48503 4.09598C4.12122 6.32782 3.9438 9.04901 4.99883 11.5634L5.40242 12.5259V12.5272Z" fill="white"/>
</svg>
