<?xml version="1.0" encoding="UTF-8"?><svg id="Layer_2" xmlns="http://www.w3.org/2000/svg" viewBox="0 0 249.24 325.47"><defs><style>.cls-1{fill:#2c2c2c;}</style></defs><g id="Layer_1-2"><path class="cls-1" d="M131.61,168.11c-1.9-1.92-4.31-2.97-6.79-2.97s-4.91,1.05-6.82,2.96l-24.12,24.12c-2.56,2.54-3.1,5.11-3.1,6.82s.54,4.28,3.08,6.8l24.14,24.14c1.91,1.91,4.33,2.96,6.82,2.96s4.89-1.06,6.78-2.96l24.14-24.14c1.82-1.82,2.83-4.24,2.83-6.8s-1-4.98-2.83-6.8l-24.12-24.12Z"/><path class="cls-1" d="M216.14,109.97c-8.1-8.48-17.57-15.73-28.15-21.55-18.87-10.36-40.73-15.84-63.2-15.84-19.75,0-39.29,4.27-56.52,12.34-11.17,5.24-21.27,11.99-30.03,20.05C13.22,127.97,0,160.49,0,199.03s13.5,71.75,39.03,94.79c22.63,20.41,53.09,31.66,85.76,31.66s62.88-11.24,85.47-31.66c25.5-23.05,38.98-55.83,38.98-94.79,0-35.65-11.45-66.45-33.1-89.06ZM124.79,274.63c-36.1,0-74.95-23.66-74.95-75.6s38.85-75.6,74.95-75.6,74.95,23.66,74.95,75.6-38.85,75.6-74.95,75.6Z"/><path class="cls-1" d="M39.89,92.66l5.68-5.23c7.95-7.32,17.13-13.45,27.3-18.22l3.39-1.59-.3-3.74c-.42-5.31,1.2-10.41,4.58-14.36,3.55-4.14,8.63-6.57,14.69-7.03,4.4-.33,9.23-.49,14.74-.49,6.44,0,13.13.22,19.61.43,6.57.22,13.37.44,20.01.44,4.62,0,8.74-.11,12.6-.33,6.32.95,11.59,4.01,14.87,8.66,3.13,4.43,4.2,9.87,3.04,15.31l-.85,3.94,3.53,1.94c9.61,5.28,18.2,11.86,25.54,19.54l5.35,5.6,3.42-6.95c.52-1.06,1.79-3.65,2.27-4.85,7.82-19.31,6.45-39.7-3.74-55.96-10.54-16.82-28.98-27.29-50.58-28.72-10.12-.68-23.01-1.06-36.28-1.06-14.52,0-28.27.45-38.72,1.27-21.25,1.68-39.31,12.26-49.54,29.03-10.07,16.51-11.38,36.64-3.59,55.24l2.98,7.12Z"/></g></svg>