<svg width="24" height="24" viewBox="0 0 24 24" fill="none" xmlns="http://www.w3.org/2000/svg">
<path d="M7.3467 21.0264C7.9463 21.4131 8.6231 21.6153 9.2881 21.6153C9.5625 21.6153 9.834 21.5801 10.0977 21.5108L10.1973 21.4844C10.9131 21.2949 11.5606 20.9248 12.0684 20.416C12.7793 19.707 12.8399 18.5498 12.2139 17.665C11.6006 16.7964 10.9186 15.9875 10.2032 15.2108L15.211 10.203C15.9877 10.9184 16.7965 11.6004 17.6651 12.2137C18.0733 12.5028 18.5401 12.6453 18.9942 12.6453C19.5225 12.6453 20.0342 12.4519 20.4141 12.0701C20.9248 11.5603 21.295 10.9129 21.4844 10.1971L21.5108 10.0975C21.7501 9.19607 21.5733 8.19317 21.0264 7.34647C19.9034 5.60917 18.3907 4.09647 16.6534 2.97347C15.8057 2.42657 14.8048 2.25077 13.9024 2.48907L13.8028 2.51547C13.087 2.70497 12.4395 3.07507 11.9317 3.58387C11.2208 4.29287 11.1602 5.45007 11.7862 6.33487C12.3995 7.20347 13.0815 8.01227 13.7969 8.78897L8.7891 13.7968C8.0124 13.0814 7.2035 12.3995 6.3349 11.7861C5.4511 11.1601 4.2919 11.2187 3.5859 11.9297C3.0752 12.4395 2.705 13.0869 2.5156 13.8027L2.4892 13.9023C2.2499 14.8037 2.4267 15.8066 2.9736 16.6533C4.0967 18.3906 5.6094 19.9033 7.3467 21.0264ZM13.3457 4.99797C13.6055 4.73817 13.9404 4.54777 14.3145 4.44917L14.4141 4.42277C14.7735 4.32897 15.1924 4.41107 15.5674 4.65327C17.0694 5.62397 18.376 6.93057 19.3467 8.43257C19.5879 8.80657 19.6729 9.22647 19.5772 9.58587L19.5508 9.68547C19.4522 10.0595 19.2617 10.3945 19.0176 10.6435C19.002 10.6523 18.9209 10.6533 18.8194 10.581C17.7706 9.83997 16.7923 9.01547 15.8908 8.11427L15.8888 8.11127L15.8858 8.10927C14.9846 7.20767 14.1601 6.22947 13.4191 5.18067C13.3467 5.07807 13.3506 4.99797 13.3457 4.99797ZM4.4229 14.4141L4.4493 14.3145C4.5479 13.9405 4.7384 13.6055 4.9825 13.3565C4.9991 13.3477 5.0792 13.3467 5.1807 13.419C6.2295 14.16 7.2078 14.9845 8.1093 15.8857L8.1113 15.8887L8.1143 15.8907C9.0155 16.7923 9.84 17.7705 10.581 18.8193C10.6533 18.9218 10.6494 19.0019 10.6542 19.0019C10.3944 19.2617 10.0595 19.4521 9.6854 19.5507L9.5858 19.5771C9.2284 19.6718 8.8075 19.5878 8.4325 19.3466C6.9305 18.3759 5.6239 17.0693 4.6532 15.5673C4.4121 15.1934 4.3271 14.7734 4.4229 14.4141ZM20.4854 2.10057C20.0948 1.70997 19.462 1.70997 19.0713 2.10057C18.6806 2.49117 18.6807 3.12397 19.0713 3.51467L20.4854 4.92877C20.6807 5.12407 20.9366 5.22177 21.1924 5.22177C21.4482 5.22177 21.7041 5.12407 21.8994 4.92877C22.29 4.53817 22.29 3.90537 21.8994 3.51467L20.4854 2.10057ZM3.5146 21.8994C3.7099 22.0947 3.9658 22.1924 4.2216 22.1924C4.4774 22.1924 4.7333 22.0947 4.9286 21.8994C5.3192 21.5088 5.3192 20.876 4.9286 20.4853L3.5145 19.0712C3.1239 18.6806 2.4911 18.6806 2.1004 19.0712C1.7097 19.4618 1.7098 20.0946 2.1004 20.4853L3.5146 21.8994Z" fill="white"/>
</svg>
